<svg width="54" height="74" viewBox="0 0 54 74" fill="none" xmlns="http://www.w3.org/2000/svg">
<path d="M19.3171 15.4812L22.5648 19.1353L18.7975 17.1053L5.02716 26.7143L4.76734 21.7068L5.15707 16.2932L5.6767 10.7444L6.58606 5.46617L4.1178 11.4211L2.81871 18.594L2.42899 21.8421L2.29908 25.3609V31.8571L19.3171 19.1353L22.0452 20.3534H19.3171L1 35.782C1 35.782 2.49015 55.4953 10.873 64.203C6.15652 54.117 4.93801 48.3449 5.15707 37.6767L19.9666 21.8421H22.5648L20.4863 22.6541C20.4863 22.6541 10.3534 38.3534 9.18423 39.8421C8.01506 41.3308 13.3002 64.9754 19.9666 73C15.6468 61.7642 13.4341 55.2869 12.9516 40.7895L21.1358 24.1429L22.5648 23.1955L23.734 24.5489L21.2657 28.0677C21.9826 34.9512 22.715 38.8829 25.163 45.5263C26.621 44.5528 27.2899 44.4845 28.6705 45.5263L31.0089 38.4887L32.0481 33.3459L32.5678 29.8271V28.203L30.4892 24.5489L30.879 23.7368L31.5285 23.1955L32.5678 24.1429L41.1417 40.7895C40.4591 54.1678 38.9378 61.172 34.2566 73C40.3399 62.7401 42.9183 55.854 44.7792 39.8421L33.4771 22.6541L31.5285 22.1128V21.8421H34.2566L49.0662 37.6767C49.2828 48.8276 47.4489 54.4188 43.2203 64.0677C50.6628 56.2076 53.3532 36.0526 52.9634 35.782C52.5737 35.5113 35.036 20.3534 35.036 20.3534H31.5285L35.036 19.1353L51.6643 31.5865V26.7143V24.0075V22.1128L50.8849 16.0226L49.7157 11.015L47.2475 5.46617L48.4166 11.015L49.0662 16.5639V26.7143L35.036 17.1053L31.5285 19.1353L34.6463 15.4812L45.6885 22.1128L45.2988 16.0226L44.9091 14.1278L44.1296 11.6917L42.181 6.2782L39.0632 1.13534L42.4408 12.5038L42.7006 18.188L34.6463 13.4511L30.7491 17.3759V15.4812L28.6705 13.4511V16.2932H25.0331V14.8045L25.6826 13.4511L23.2144 15.4812V17.3759L19.3171 13.4511L11.1329 18.188L11.5226 13.8571L12.302 9.52632L14.9002 1L13.3413 3.70677L12.0422 6.2782L9.96369 11.4211L8.6646 16.6992L8.27487 22.1128L19.3171 15.4812Z" fill="#F4F7FB" stroke="#F4F7FB"/>
</svg>
