<svg width="31" height="24" viewBox="0 0 31 24" fill="none" xmlns="http://www.w3.org/2000/svg">
<path d="M14.849 7.42372C8.328 7.16953 3.616 3.17747 2.075 1.21322C-0.178003 4.91063 2.361 8.06885 3.912 9.1858C3.296 9.2551 1.81801 8.791 1.15601 8.55028C1.36901 12.6174 4.56399 14.1927 6.13499 14.4719C5.28099 14.7261 3.981 14.7126 3.438 14.6741C4.529 17.9556 7.706 18.776 9.158 18.776C6.431 21.2255 1.917 21.5298 0 21.3757C5.957 24.842 15.145 25.5353 21.695 19.3537C25.971 14.6605 26.951 11.6681 27.208 5.95053C28.891 4.77198 29.885 3.41819 30.171 2.88861C29.436 3.30457 27.613 3.63965 26.793 3.75519C28.31 2.96949 29.164 1.25173 29.401 0.49106C28.524 1.115 26.427 1.71391 25.489 1.93537C23.976 0.5294 22.931 0.1592 20.835 0C16.419 0.25997 14.226 3.49522 14.849 7.42372Z" fill="#959698"/>
</svg>
